<mxfile host="app.diagrams.net" modified="2024-04-29T00:53:15.402Z" agent="Mozilla/5.0 (Windows NT 10.0; Win64; x64) AppleWebKit/537.36 (KHTML, like Gecko) Chrome/121.0.0.0 Safari/537.36 OPR/107.0.0.0" version="24.3.1" etag="gozr_j0ahwwX17Or4EXG" type="github">
  <diagram name="PÃ¡gina-1" id="Z80VmC9DAHyATXfn5Tyw">
    <mxGraphModel>
      <root>
        <mxCell id="0" />
        <mxCell id="1" parent="0" />
      </root>
    </mxGraphModel>
  </diagram>
</mxfile>
